# AST/ASF file generated using VICON BodyLanguage
# -----------------------------------------------
:version 1.10
:name VICON
:units
  mass 1.0
  length 0.45
  angle deg
:documentation
   .ast/.asf automatically generated from VICON data using
   VICON BodyBuilder and BodyLanguage model FoxedUp or BRILLIANT.MOD
:root
   order TX TY TZ RX RY RZ
   axis XYZ
   position 0 0 0  
   orientation 0 0 0 
:bonedata
  begin
     id 1 
     name lhipjoint
     direction 0.822369 -0.411937 0.392449 
     length 3.8167 
     axis 0 0 0  XYZ
  end
  begin
     id 2 
     name lfemur
     direction 0.34202 -0.939693 0  
     length 6.16791  
     axis 0 0 20  XYZ
    dof rx ry rz
    limits (-160.0 20.0)
           (-70.0 70.0)
           (-60.0 70.0)
  end
  begin
     id 3 
     name ltibia
     direction 0.34202 -0.939693 0   
     length 7.07101   
     axis 0 0 20   XYZ
    dof rx
    limits (-10.0 170.0)
  end
  begin
     id 4 
     name lfoot
     direction 0.028254 -0.0776273 0.996582   
     length 1.66799   
     axis -90 7.62852e-016 20   XYZ
    dof rx rz
    limits (-45.0 90.0)
           (-70.0 20.0)
  end
  begin
     id 5 
     name ltoes
     direction 1.53483e-011 -4.21688e-011 1   
     length 0.851674   
     axis -90 7.62852e-016 20   XYZ
    dof rx
    limits (-90.0 20.0)
  end
  begin
     id 6 
     name rhipjoint
     direction -0.822466 -0.411836 0.392353   
     length 3.81764  
     axis 0 0 0  XYZ 
  end
  begin
     id 7 
     name rfemur
     direction -0.34202 -0.939693 0   
     length 6.28636   
     axis 0 0 -20   XYZ
    dof rx ry rz
    limits (-160.0 20.0)
           (-70.0 70.0)
           (-70.0 60.0)
  end
  begin
     id 8 
     name rtibia
     direction -0.34202 -0.939693 0   
     length 6.85621   
     axis 0 0 -20   XYZ
    dof rx
    limits (-10.0 170.0)
 end
 begin
     id 9 
     name rfoot
     direction -0.0553036 -0.151945 0.98684   
     length 1.57293  
     axis -90 -7.62852e-016 -20   XYZ
    dof rx rz
    limits (-45.0 90.0)
           (-20.0 70.0)
  end
  begin
     id 10 
     name rtoes
     direction -1.53592e-011 -4.21964e-011 1   
     length 0.802812   
     axis -90 -7.62852e-016 -20   XYZ
    dof rx
    limits (-90.0 20.0)
  end
  begin
     id 11 
     name lowerback
     direction 0.00654913 0.996475 -0.0836396   
     length 1.97212   
     axis 0 0 0   XYZ
    dof rx ry rz
    limits (-20.0 45.0)
           (-30.0 30.0)
           (-30.0 30.0)
  end
  begin
     id 12 
     name upperback
     direction 0.0111875 0.994527 0.103877   
     length 1.89704   
     axis 0 0 0   XYZ
    dof rx ry rz
    limits (-20.0 45.0)
           (-30.0 30.0)
           (-30.0 30.0)
  end
  begin
     id 13 
     name thorax
     direction 0.00473652 0.989004 0.147814   
     length 1.94516   
     axis 0 0 0   XYZ
    dof rx ry rz
    limits (-20.0 45.0)
           (-30.0 30.0)
           (-30.0 30.0)
  end
  begin
     id 14 
     name lowerneck
     direction -0.00925808 0.999011 0.0434791   
     length 1.81771   
     axis 0 0 0   XYZ
    dof rx ry rz
    limits (-20.0 45.0)
           (-30.0 30.0)
           (-30.0 30.0)
  end
  begin
     id 15 
     name upperneck
     direction 0.00451595 0.964412 -0.264365   
     length 1.80434   
     axis 0 0 0   XYZ
    dof rx ry rz
    limits (-20.0 45.0)
           (-30.0 30.0)
           (-30.0 30.0)
  end
  begin
     id 16
     name head
     direction -0.00110849 0.995756 -0.0920241  
     length 1.84006  
     axis 0 0 0   XYZ
    dof rx ry rz
    limits (-20.0 45.0)
           (-30.0 30.0)
           (-30.0 30.0)
  end
  begin
     id 17 
     name lclavicle
     direction 0.921253 0.385213 0.0538957  
     length 3.67415  
     axis 0 0 0   XYZ
    dof ry rz
    limits (-20.0 10.0)
           (0.0 20.0)
  end
  begin
     id 18 
     name lhumerus
     direction 1 -4.48961e-011 6.73441e-028   
     length 4.32712   
     axis 180 -30 -90   XYZ
    dof rx ry rz
    limits (-60.0 90.0)
           (-90.0 90.0)
           (-90.0 90.0)
  end
  begin
     id 19
     name lradius
     direction 1 -4.48985e-011 -9.53507e-028   
     length 3.28587   
     axis 180 -30 -90   XYZ
    dof rx
    limits (-10.0 170.0)
  end
  begin
     id 20
     name lwrist
     direction 1 -4.48951e-011 -4.67472e-027   
     length 1.64293   
     axis 1.65735e-015 90 90   XYZ
    dof ry
    limits (-180.0 0.0)
 end
  begin
     id 21 
     name lhand
     direction 1 -4.48946e-011 -9.34945e-027   
     length 0.433158   
     axis 5.96574e-015 90 90   XYZ
    dof rx rz
    limits (-90.0 90.0)
           (-45.0 45.0)
  end
  begin
     id 22 
     name lfingers
     direction 1 -4.48882e-011 -1.86989e-026   
     length 0.349224   
     axis 1.19315e-014 90 90   XYZ
    dof rx
    limits (0.0 90.0)
  end
  begin
     id 23
     name lthumb
     direction 0.707107 -6.3493e-011 0.707107   
     length 0.501417   
     axis -90 45 2.85299e-015   XYZ
    dof rx rz
    limits (-45.0 45.0)
           (-45.0 45.0)
  end
  begin
     id 24 
     name rclavicle
     direction -0.884378 0.46502 -0.0403866   
     length 3.50218  
     axis 0 0 0   XYZ 
    dof ry rz
    limits (-10.0 20.0)
           (-20.0 0.0)
  end
  begin
     id 25 
     name rhumerus
     direction -1 -4.48964e-011 1.58188e-027  
     length 4.29104   
     axis 180 30 90   XYZ
    dof rx ry rz
    limits (-90.0 60.0)
           (-90.0 90.0)
           (-90.0 90.0)
  end
  begin
     id 26 
     name rradius
     direction -1 -4.48978e-011 -1.9722e-027   
     length 3.2272   
     axis 180 30 90   XYZ
    dof rx
    limits (-10.0 170.0)
  end
  begin
     id 27 
     name rwrist
     direction -1 -4.48969e-011 -4.67472e-027   
     length 1.6136   
     axis 1.65735e-015 -90 -90   XYZ
    dof ry
    limits (-180.0 0.0)
  end
  begin
     id 28
     name rhand
     direction -1 -4.48846e-011 -9.34945e-027   
     length 0.543623   
     axis 5.96574e-015 -90 -90   XYZ
    dof rx rz
    limits (-90.0 90.0)
           (-45.0 45.0)
  end
  begin
     id 29
     name rfingers
     direction -1 -4.49074e-011 -1.86989e-026   
     length 0.438283   
     axis 1.19315e-014 -90 -90   XYZ
    dof rx
    limits (0.0 90.0)
  end
  begin
     id 30
     name rthumb
     direction -0.707107 -6.34834e-011 0.707107   
     length 0.629289   
     axis -90 -45 -2.85299e-015   XYZ
    dof rx rz
    limits (-45.0 45.0)
           (-45.0 45.0)
  end
:hierarchy
  begin
    root lhipjoint rhipjoint lowerback
    lhipjoint lfemur
    lfemur ltibia
    ltibia lfoot
    lfoot ltoes
    rhipjoint rfemur
    rfemur rtibia
    rtibia rfoot
    rfoot rtoes
    lowerback upperback
    upperback thorax
    thorax lowerneck lclavicle rclavicle
    lowerneck upperneck
    upperneck head
    lclavicle lhumerus
    lhumerus lradius
    lradius lwrist
    lwrist lhand lthumb
    lhand lfingers
    rclavicle rhumerus
    rhumerus rradius
    rradius rwrist
    rwrist rhand rthumb
    rhand rfingers
  end

#!OML:ASF H:\GeneralSubjects\Female5\Project 1\Capture day 1\Session 1\Female5.ASF
:FULLY-SPECIFIED
:DEGREES
33
root -38.065 15.5665 -2.2623 -92.6424 88.2722 -106.403
lowerback 8.93953 1.26687 -1.04703
upperback -9.47293 1.85075 0.355112
thorax -15.6539 1.10458 0.546522
lowerneck -20.4343 -4.40261 -2.05801
upperneck 24.9595 -5.55745 0.755291
head 11.6229 -2.50955 -0.240775
rclavicle 2.16831e-014 1.26228e-014
rhumerus -51.027 14.1199 -83.412
rradius 34.4018
rwrist -10.4669
rhand -20.0478 -23.665
rfingers 7.12502
rthumb 6.29363 -53.5515
lclavicle 2.16831e-014 1.26228e-014
lhumerus -47.9041 2.47194 78.0237
lradius 34.2173
lwrist -7.31448
lhand -22.8723 37.3283
lfingers 7.12502
lthumb 3.56641 67.2782
rfemur -39.1368 8.48482 28.9949
rtibia 10.8023
rfoot -22.914 -22.153
rtoes -26.7228
lfemur 4.75873 -23.9376 -36.6196
ltibia -2.27471
lfoot -28.321 14.4961
ltoes -65.8741
34
root -37.8921 15.5344 -2.27168 -98.3513 88.4616 -112.441
lowerback 8.77199 1.20087 -1.2619
upperback -9.5576 1.72599 0.295271
thorax -15.6516 1.06988 0.629491
lowerneck -20.3241 -4.1399 -2.14365
upperneck 24.4419 -5.17489 0.80849
head 11.403 -2.35077 -0.138824
rclavicle 2.62458e-015 -3.8763e-015
rhumerus -51.3492 13.6917 -83.0913
rradius 34.1702
rwrist -10.2669
rhand -20.4161 -23.3526
rfingers 7.12502
rthumb 5.93811 -53.2494
lclavicle 2.62458e-015 -3.8763e-015
lhumerus -47.7484 2.37731 78.0443
lradius 34.4458
lwrist -7.87516
lhand -22.5447 34.6509
lfingers 7.12502
lthumb 3.88277 64.5952
rfemur -39.1921 11.3002 27.2157
rtibia 7.85972
rfoot -24.1264 -23.7276
rtoes -24.9619
lfemur 5.44084 -24.2381 -37.2035
ltibia -2.67469
lfoot -25.7956 18.3944
ltoes -70.7455
35
root -37.707 15.5014 -2.28035 -110.461 88.5558 -124.831
lowerback 8.49789 1.08891 -1.35094
upperback -9.57178 1.556 0.227452
thorax -15.4865 0.997355 0.646492
lowerneck -20.8178 -4.15727 -1.96991
upperneck 24.9645 -5.1549 0.473721
head 11.6819 -2.3578 -0.303344
rclavicle -1.80149e-015 -5.1684e-015
rhumerus -51.592 13.3724 -82.8185
rradius 33.9621
rwrist -10.2727
rhand -20.2272 -23.3373
rfingers 7.12502
rthumb 6.12046 -53.2289
lclavicle -1.80149e-015 -5.1684e-015
lhumerus -47.4783 2.1193 78.1811
lradius 34.7199
lwrist -7.89819
lhand -22.6156 35.0958
lfingers 7.12502
lthumb 3.81435 65.0414
rfemur -39.2956 14.7042 24.7674
rtibia 5.3608
rfoot -26.1441 -25.1053
rtoes -21.2308
lfemur 6.21092 -24.3332 -37.7406
ltibia -3.14569
lfoot -27.0173 15.6731
ltoes -68.7572
36
root -37.513 15.464 -2.28926 -123.087 88.5548 -137.75
lowerback 8.21648 0.98464 -1.38751
upperback -9.49957 1.40194 0.172022
thorax -15.2104 0.923989 0.645511
lowerneck -21.4829 -4.15436 -1.87906
upperneck 25.1176 -5.13327 0.314352
head 11.8626 -2.35752 -0.39096
rclavicle -3.14328e-015 -6.4605e-015
rhumerus -51.5266 13.0092 -82.4336
rradius 33.5863
rwrist -10.0291
rhand -18.1072 -25.2732
rfingers 7.12502
rthumb 8.16685 -55.0953
lclavicle -3.14328e-015 -6.4605e-015
lhumerus -46.83 2.12475 78.2118
lradius 34.7858
lwrist -7.95453
lhand -22.7986 37.3655
lfingers 7.12502
lthumb 3.63759 67.3142
rfemur -39.7078 17.6885 22.4747
rtibia 3.91366
rfoot -27.0474 -27.2277
rtoes -18.9995
lfemur 6.78693 -24.1481 -38.1646
ltibia -3.3279
lfoot -24.3912 18.8415
ltoes -72.9665
37
root -37.3112 15.4214 -2.30199 -134.952 88.4971 -149.896
lowerback 7.91883 0.877965 -1.34926
upperback -9.60183 1.26634 0.100558
thorax -15.1356 0.855907 0.57615
lowerneck -21.2462 -4.12257 -1.94607
upperneck 25.024 -5.0801 0.363626
head 11.7833 -2.3356 -0.346401
rclavicle 2.08848e-014 -3.97569e-016
rhumerus -51.841 12.5662 -82.1023
rradius 33.1276
rwrist -9.47268
rhand -20.2163 -22.7339
rfingers 7.12502
rthumb 6.131 -52.6252
lclavicle 2.08848e-014 -3.97569e-016
lhumerus -46.721 1.86878 78.3577
lradius 35.1186
lwrist -7.88118
lhand -22.539 35.6053
lfingers 7.12502
lthumb 3.88831 65.5495
rfemur -39.6636 18.0656 22.3168
rtibia 3.19924
rfoot -25.8181 -26.8406
rtoes -18.5686
lfemur 7.42975 -24.116 -38.7006
ltibia -3.44142
lfoot -24.1948 18.2096
ltoes -72.9146
38
root -37.0976 15.3802 -2.31752 -146.253 88.3021 -161.368
lowerback 7.65537 0.758191 -1.25325
upperback -9.65773 1.11873 0.0362571
thorax -15.0254 0.774523 0.484512
lowerneck -21.4284 -4.03879 -1.84671
upperneck 25.5421 -4.90613 0.0940544
head 12.0067 -2.27283 -0.444052
rclavicle 1.25949e-014 6.26172e-015
rhumerus -52.1922 12.2133 -81.8912
rradius 32.6022
rwrist -9.8282
rhand -20.1218 -22.2233
rfingers 7.12502
rthumb 6.22223 -52.1119
lclavicle 1.25949e-014 6.26172e-015
lhumerus -46.597 1.59412 78.5842
lradius 35.4492
lwrist -7.60681
lhand -22.7281 36.3251
lfingers 7.12502
lthumb 3.70563 66.2726
rfemur -39.6199 18.3036 22.1554
rtibia 3.09116
rfoot -24.3358 -26.4405
rtoes -19.3309
lfemur 8.17995 -23.9276 -39.2515
ltibia -3.45529
lfoot -24.3625 17.1309
ltoes -72.5882
39
root -36.873 15.3448 -2.33315 -154.456 87.9915 -169.629
lowerback 7.53095 0.613008 -1.05144
upperback -9.71758 0.950333 -0.0148811
thorax -15.0083 0.672137 0.349568
lowerneck -21.6173 -3.96728 -1.68113
upperneck 26.0465 -4.73592 -0.290251
head 12.2237 -2.22186 -0.597238
rclavicle 7.38609e-015 9.93923e-017
rhumerus -52.4532 11.5534 -81.3003
rradius 32.27
rwrist -9.02332
rhand -20.365 -20.8833
rfingers 7.12502
rthumb 5.98742 -50.7787
lclavicle 7.38609e-015 9.93923e-017
lhumerus -46.4036 1.51238 78.7113
lradius 35.4153
lwrist -7.39255
lhand -23.1825 37.091
lfingers 7.12502
lthumb 3.26685 67.0457
rfemur -39.7447 18.3926 21.968
rtibia 4.49727
rfoot -23.1275 -26.1646
rtoes -23.1789
lfemur 9.16384 -23.8311 -39.8012
ltibia -3.54618
lfoot -22.2005 18.479
ltoes -74.2314
40
root -36.6393 15.3147 -2.35111 -161.637 87.6366 -176.788
lowerback 7.53637 0.467934 -0.862795
upperback -9.75919 0.776653 -0.060347
thorax -15.055 0.567824 0.227719
lowerneck -21.8531 -3.94771 -1.61449
upperneck 26.3942 -4.67075 -0.464022
head 12.4008 -2.20271 -0.672788
rclavicle 9.23262e-015 9.44227e-015
rhumerus -52.7371 11.0418 -80.8776
rradius 31.8058
rwrist -9.40757
rhand -19.9926 -21.4886
rfingers 7.12502
rthumb 6.34694 -51.3735
lclavicle 9.23262e-015 9.44227e-015
lhumerus -46.1073 1.58927 78.8118
lradius 35.1752
lwrist -7.49099
lhand -23.4974 37.247
lfingers 7.12502
lthumb 2.96279 67.2061
rfemur -39.2899 17.0086 22.9457
rtibia 5.81978
rfoot -21.392 -23.7114
rtoes -28.8792
lfemur 10.5815 -24.3879 -40.632
ltibia -3.91873
lfoot -22.08 18.465
ltoes -73.9717
41
root -36.3951 15.2893 -2.37363 -163.787 87.2335 -178.839
lowerback 7.55261 0.327188 -0.476511
upperback -9.809 0.644009 -0.065667
thorax -15.119 0.463874 0.031375
lowerneck -22.1044 -3.92448 -1.50317
upperneck 26.9283 -4.6147 -0.625976
head 12.6566 -2.17695 -0.756266
rclavicle -1.51573e-015 2.73329e-016
rhumerus -52.9014 10.4352 -80.2113
rradius 31.5249
rwrist -8.75846
rhand -18.8895 -22.5119
rfingers 7.12502
rthumb 7.4118 -52.3621
lclavicle -1.51573e-015 2.73329e-016
lhumerus -45.85 1.68518 78.9692
lradius 34.8669
lwrist -7.7545
lhand -23.4207 37.4384
lfingers 7.12502
lthumb 3.03686 67.3965
rfemur -38.7975 15.9303 23.7699
rtibia 6.91608
rfoot -19.3778 -21.6292
rtoes -23.3275
lfemur 11.1917 -23.6079 -40.8151
ltibia -3.11213
lfoot -23.4664 15.2551
ltoes -72.6919
42
root -36.1433 15.2731 -2.40029 -160.705 86.8145 -175.663
lowerback 7.49948 0.177856 0.272427
upperback -9.9185 0.563891 -0.0346199
thorax -15.2115 0.348349 -0.338521
lowerneck -22.1229 -3.88623 -1.35309
upperneck 27.4906 -4.55143 -0.777853
head 12.8788 -2.14054 -0.83656
rclavicle -1.5467e-015 1.42453e-014
rhumerus -53.2194 9.78209 -79.6403
rradius 31.1163
rwrist -8.36044
rhand -19.0524 -22.0286
rfingers 7.12502
rthumb 7.25454 -51.8842
lclavicle -1.5467e-015 1.42453e-014
lhumerus -45.829 1.71568 79.1403
lradius 34.5595
lwrist -7.91856
lhand -23.2888 37.797
lfingers 7.12502
lthumb 3.16419 67.7533
rfemur -38.4877 14.9431 24.6436
rtibia 8.20753
rfoot -18.453 -22.2574
rtoes -22.0625
lfemur 12.0314 -23.4821 -40.9436
ltibia -2.45405
lfoot -20.3858 18.1282
ltoes -74.8873
43
root -35.8881 15.2747 -2.42956 -155.986 86.4451 -170.942
lowerback 7.35561 0.0437411 1.16013
upperback -10.0612 0.531757 0.0237366
thorax -15.2902 0.242138 -0.765059
lowerneck -22.0574 -3.80546 -1.25431
upperneck 27.8866 -4.45867 -0.779795
head 13.0243 -2.07858 -0.841358
rclavicle -2.69835e-015 7.30534e-015
rhumerus -53.5868 8.90442 -78.9595
rradius 30.6488
rwrist -7.44488
rhand -19.7042 -21.012
rfingers 7.12502
rthumb 6.62538 -50.8884
lclavicle -2.69835e-015 7.30534e-015
lhumerus -45.9912 1.59588 79.3476
lradius 34.4204
lwrist -7.78229
lhand -23.7515 39.938
lfingers 7.12502
lthumb 2.71731 69.9005
rfemur -38.5408 13.7622 25.6413
rtibia 10.2077
rfoot -19.7719 -21.9148
rtoes -16.0841
lfemur 12.6686 -23.6091 -41.0283
ltibia -1.43523
lfoot -21.1133 16.9164
ltoes -73.6439
